<mxfile host="app.diagrams.net" modified="2024-04-18T15:06:34.948Z" agent="Mozilla/5.0 (Windows NT 10.0; Win64; x64) AppleWebKit/537.36 (KHTML, like Gecko) Chrome/123.0.0.0 Safari/537.36" etag="SY_n9VwfDP84wrZfjOlc" version="24.2.5" type="github">
  <diagram name="Pagina-1" id="YYRBDbeNr-HkOudGB8Iu">
    <mxGraphModel dx="3262" dy="922" grid="0" gridSize="10" guides="1" tooltips="1" connect="1" arrows="1" fold="1" page="0" pageScale="1" pageWidth="827" pageHeight="1169" math="0" shadow="0">
      <root>
        <mxCell id="0" />
        <mxCell id="1" parent="0" />
        <mxCell id="rlhBUZmAT8BfPZjBoUgw-25" value="" style="group" parent="1" vertex="1" connectable="0">
          <mxGeometry x="-780" y="80" width="760" height="280" as="geometry" />
        </mxCell>
        <mxCell id="rlhBUZmAT8BfPZjBoUgw-12" value="Application" style="swimlane;fontStyle=0;childLayout=stackLayout;horizontal=1;startSize=30;horizontalStack=0;resizeParent=1;resizeParentMax=0;resizeLast=0;collapsible=1;marginBottom=0;whiteSpace=wrap;html=1;" parent="rlhBUZmAT8BfPZjBoUgw-25" vertex="1">
          <mxGeometry width="253.33333333333334" height="217.5" as="geometry">
            <mxRectangle width="90" height="30" as="alternateBounds" />
          </mxGeometry>
        </mxCell>
        <mxCell id="rlhBUZmAT8BfPZjBoUgw-13" value="Human Interface aka get user input and return output (shell?)" style="text;strokeColor=none;fillColor=none;align=left;verticalAlign=middle;spacingLeft=4;spacingRight=4;overflow=hidden;points=[[0,0.5],[1,0.5]];portConstraint=eastwest;rotatable=0;whiteSpace=wrap;html=1;" parent="rlhBUZmAT8BfPZjBoUgw-12" vertex="1">
          <mxGeometry y="30" width="253.33333333333334" height="62.50000000000001" as="geometry" />
        </mxCell>
        <mxCell id="rlhBUZmAT8BfPZjBoUgw-41" value="Uart" style="text;strokeColor=none;fillColor=none;align=left;verticalAlign=middle;spacingLeft=4;spacingRight=4;overflow=hidden;points=[[0,0.5],[1,0.5]];portConstraint=eastwest;rotatable=0;whiteSpace=wrap;html=1;" parent="rlhBUZmAT8BfPZjBoUgw-12" vertex="1">
          <mxGeometry y="92.5" width="253.33333333333334" height="62.50000000000001" as="geometry" />
        </mxCell>
        <mxCell id="rlhBUZmAT8BfPZjBoUgw-44" value="PS/2" style="text;strokeColor=none;fillColor=none;align=left;verticalAlign=middle;spacingLeft=4;spacingRight=4;overflow=hidden;points=[[0,0.5],[1,0.5]];portConstraint=eastwest;rotatable=0;whiteSpace=wrap;html=1;" parent="rlhBUZmAT8BfPZjBoUgw-12" vertex="1">
          <mxGeometry y="155" width="253.33333333333334" height="62.50000000000001" as="geometry" />
        </mxCell>
        <mxCell id="rlhBUZmAT8BfPZjBoUgw-16" value="Buisness" style="swimlane;fontStyle=0;childLayout=stackLayout;horizontal=1;startSize=30;horizontalStack=0;resizeParent=1;resizeParentMax=0;resizeLast=0;collapsible=1;marginBottom=0;whiteSpace=wrap;html=1;" parent="rlhBUZmAT8BfPZjBoUgw-25" vertex="1">
          <mxGeometry x="253.33" width="253.33" height="92.5" as="geometry">
            <mxRectangle x="253.33333333333334" width="100" height="30" as="alternateBounds" />
          </mxGeometry>
        </mxCell>
        <mxCell id="rlhBUZmAT8BfPZjBoUgw-38" value="Parser (Parse tree)&lt;div&gt;&lt;span style=&quot;white-space: pre;&quot;&gt;&#x9;&lt;/span&gt;Lexical analysis -&amp;gt; tokens&lt;/div&gt;&lt;div&gt;&lt;span style=&quot;white-space: pre;&quot;&gt;&#x9;&lt;/span&gt;Syntac&lt;span style=&quot;background-color: initial;&quot;&gt;tic Analysis&lt;/span&gt;&lt;/div&gt;" style="text;strokeColor=none;fillColor=none;align=left;verticalAlign=middle;spacingLeft=4;spacingRight=4;overflow=hidden;points=[[0,0.5],[1,0.5]];portConstraint=eastwest;rotatable=0;whiteSpace=wrap;html=1;" parent="rlhBUZmAT8BfPZjBoUgw-16" vertex="1">
          <mxGeometry y="30" width="253.33" height="62.50000000000001" as="geometry" />
        </mxCell>
        <mxCell id="rlhBUZmAT8BfPZjBoUgw-21" value="Low-level API" style="swimlane;fontStyle=0;childLayout=stackLayout;horizontal=1;startSize=30;horizontalStack=0;resizeParent=1;resizeParentMax=0;resizeLast=0;collapsible=1;marginBottom=0;whiteSpace=wrap;html=1;" parent="rlhBUZmAT8BfPZjBoUgw-25" vertex="1">
          <mxGeometry x="506.6666666666667" width="253.33333333333334" height="92.5" as="geometry">
            <mxRectangle x="506.6666666666667" width="90" height="30" as="alternateBounds" />
          </mxGeometry>
        </mxCell>
        <mxCell id="rlhBUZmAT8BfPZjBoUgw-24" value="Item 3" style="text;strokeColor=none;fillColor=none;align=left;verticalAlign=middle;spacingLeft=4;spacingRight=4;overflow=hidden;points=[[0,0.5],[1,0.5]];portConstraint=eastwest;rotatable=0;whiteSpace=wrap;html=1;" parent="rlhBUZmAT8BfPZjBoUgw-21" vertex="1">
          <mxGeometry y="30" width="253.33333333333334" height="62.50000000000001" as="geometry" />
        </mxCell>
        <mxCell id="rlhBUZmAT8BfPZjBoUgw-45" value="" style="endArrow=none;html=1;rounded=0;" parent="1" edge="1">
          <mxGeometry width="50" height="50" relative="1" as="geometry">
            <mxPoint x="888" y="165" as="sourcePoint" />
            <mxPoint x="1649.6666666666667" y="165" as="targetPoint" />
          </mxGeometry>
        </mxCell>
        <mxCell id="rlhBUZmAT8BfPZjBoUgw-46" value="" style="endArrow=none;html=1;rounded=0;" parent="1" edge="1">
          <mxGeometry width="50" height="50" relative="1" as="geometry">
            <mxPoint x="888" y="405" as="sourcePoint" />
            <mxPoint x="1649.6666666666667" y="405" as="targetPoint" />
          </mxGeometry>
        </mxCell>
        <mxCell id="rlhBUZmAT8BfPZjBoUgw-47" value="User input" style="text;html=1;align=center;verticalAlign=middle;whiteSpace=wrap;rounded=0;" parent="1" vertex="1">
          <mxGeometry x="827" y="10" width="60" height="60" as="geometry" />
        </mxCell>
        <mxCell id="rlhBUZmAT8BfPZjBoUgw-52" style="edgeStyle=orthogonalEdgeStyle;rounded=0;orthogonalLoop=1;jettySize=auto;html=1;" parent="1" source="rlhBUZmAT8BfPZjBoUgw-49" edge="1">
          <mxGeometry relative="1" as="geometry">
            <mxPoint x="1080" y="40" as="targetPoint" />
          </mxGeometry>
        </mxCell>
        <mxCell id="rlhBUZmAT8BfPZjBoUgw-49" value="Script in script.txt" style="rounded=0;whiteSpace=wrap;html=1;" parent="1" vertex="1">
          <mxGeometry x="897" y="10" width="120" height="60" as="geometry" />
        </mxCell>
        <mxCell id="rlhBUZmAT8BfPZjBoUgw-50" value="" style="group" parent="1" vertex="1" connectable="0">
          <mxGeometry x="-780" width="760" height="80" as="geometry" />
        </mxCell>
        <mxCell id="rlhBUZmAT8BfPZjBoUgw-1" value="High Level Design Software Ontwikkeling" style="rounded=0;whiteSpace=wrap;html=1;" parent="rlhBUZmAT8BfPZjBoUgw-50" vertex="1">
          <mxGeometry y="20" width="760" height="60" as="geometry" />
        </mxCell>
        <mxCell id="rlhBUZmAT8BfPZjBoUgw-37" value="Actor" style="shape=umlActor;verticalLabelPosition=bottom;verticalAlign=top;html=1;outlineConnect=0;fontColor=none;noLabel=1;" parent="rlhBUZmAT8BfPZjBoUgw-50" vertex="1">
          <mxGeometry x="10" width="10" height="20" as="geometry" />
        </mxCell>
        <mxCell id="rlhBUZmAT8BfPZjBoUgw-54" style="edgeStyle=orthogonalEdgeStyle;rounded=0;orthogonalLoop=1;jettySize=auto;html=1;" parent="1" source="rlhBUZmAT8BfPZjBoUgw-53" target="rlhBUZmAT8BfPZjBoUgw-55" edge="1">
          <mxGeometry relative="1" as="geometry">
            <mxPoint x="1300" y="40" as="targetPoint" />
          </mxGeometry>
        </mxCell>
        <mxCell id="rlhBUZmAT8BfPZjBoUgw-53" value="*.exe/ *.py Uart transmitter" style="rounded=0;whiteSpace=wrap;html=1;" parent="1" vertex="1">
          <mxGeometry x="1068" y="10" width="120" height="60" as="geometry" />
        </mxCell>
        <mxCell id="rlhBUZmAT8BfPZjBoUgw-58" value="" style="edgeStyle=orthogonalEdgeStyle;rounded=0;orthogonalLoop=1;jettySize=auto;html=1;fillColor=#d5e8d4;strokeColor=#82b366;strokeWidth=2;entryX=0.027;entryY=0.035;entryDx=0;entryDy=0;entryPerimeter=0;" parent="1" source="rlhBUZmAT8BfPZjBoUgw-55" edge="1" target="rlhBUZmAT8BfPZjBoUgw-87">
          <mxGeometry relative="1" as="geometry">
            <mxPoint x="1650" y="40" as="targetPoint" />
          </mxGeometry>
        </mxCell>
        <mxCell id="rlhBUZmAT8BfPZjBoUgw-55" value="Serial connection" style="rounded=0;whiteSpace=wrap;html=1;" parent="1" vertex="1">
          <mxGeometry x="1238" y="10" width="120" height="60" as="geometry" />
        </mxCell>
        <mxCell id="rlhBUZmAT8BfPZjBoUgw-59" value="Application layer" style="text;html=1;align=center;verticalAlign=middle;whiteSpace=wrap;rounded=0;" parent="1" vertex="1">
          <mxGeometry x="818" y="175" width="60" height="30" as="geometry" />
        </mxCell>
        <mxCell id="rlhBUZmAT8BfPZjBoUgw-63" style="edgeStyle=orthogonalEdgeStyle;rounded=0;orthogonalLoop=1;jettySize=auto;html=1;entryX=0;entryY=0.5;entryDx=0;entryDy=0;" parent="1" source="rlhBUZmAT8BfPZjBoUgw-60" edge="1" target="rlhBUZmAT8BfPZjBoUgw-64">
          <mxGeometry relative="1" as="geometry">
            <mxPoint x="1071" y="205" as="targetPoint" />
          </mxGeometry>
        </mxCell>
        <mxCell id="rlhBUZmAT8BfPZjBoUgw-60" value="Uart Rx" style="rounded=0;whiteSpace=wrap;html=1;" parent="1" vertex="1">
          <mxGeometry x="897" y="175" width="120" height="60" as="geometry" />
        </mxCell>
        <mxCell id="rlhBUZmAT8BfPZjBoUgw-62" style="edgeStyle=orthogonalEdgeStyle;rounded=0;orthogonalLoop=1;jettySize=auto;html=1;dashed=1;entryX=0;entryY=0.5;entryDx=0;entryDy=0;" parent="1" source="rlhBUZmAT8BfPZjBoUgw-61" edge="1" target="rlhBUZmAT8BfPZjBoUgw-64">
          <mxGeometry relative="1" as="geometry">
            <mxPoint x="1071" y="205" as="targetPoint" />
            <Array as="points">
              <mxPoint x="1041" y="275" />
              <mxPoint x="1041" y="205" />
            </Array>
          </mxGeometry>
        </mxCell>
        <mxCell id="rlhBUZmAT8BfPZjBoUgw-61" value="PS/2 Rx" style="rounded=0;whiteSpace=wrap;html=1;dashed=1;" parent="1" vertex="1">
          <mxGeometry x="897" y="245" width="120" height="60" as="geometry" />
        </mxCell>
        <mxCell id="rlhBUZmAT8BfPZjBoUgw-67" style="edgeStyle=orthogonalEdgeStyle;rounded=0;orthogonalLoop=1;jettySize=auto;html=1;fillColor=#d5e8d4;strokeColor=#82b366;strokeWidth=2;" parent="1" source="rlhBUZmAT8BfPZjBoUgw-64" edge="1">
          <mxGeometry relative="1" as="geometry">
            <mxPoint x="1669" y="205" as="targetPoint" />
          </mxGeometry>
        </mxCell>
        <mxCell id="rlhBUZmAT8BfPZjBoUgw-64" value="Queue" style="rounded=0;whiteSpace=wrap;html=1;" parent="1" vertex="1">
          <mxGeometry x="1068" y="175" width="120" height="60" as="geometry" />
        </mxCell>
        <mxCell id="WqScMj2jkjU4SlrWVlD_-9" style="edgeStyle=orthogonalEdgeStyle;rounded=0;orthogonalLoop=1;jettySize=auto;html=1;entryX=0;entryY=0.5;entryDx=0;entryDy=0;dashed=1;" edge="1" parent="1" source="rlhBUZmAT8BfPZjBoUgw-65" target="rlhBUZmAT8BfPZjBoUgw-64">
          <mxGeometry relative="1" as="geometry">
            <Array as="points">
              <mxPoint x="1041" y="345" />
              <mxPoint x="1041" y="205" />
            </Array>
          </mxGeometry>
        </mxCell>
        <mxCell id="rlhBUZmAT8BfPZjBoUgw-65" value="IR Rx" style="rounded=0;whiteSpace=wrap;html=1;dashed=1;" parent="1" vertex="1">
          <mxGeometry x="897" y="315" width="120" height="60" as="geometry" />
        </mxCell>
        <mxCell id="rlhBUZmAT8BfPZjBoUgw-68" value="Business logic layer" style="text;html=1;align=center;verticalAlign=middle;whiteSpace=wrap;rounded=0;" parent="1" vertex="1">
          <mxGeometry x="818" y="415" width="60" height="30" as="geometry" />
        </mxCell>
        <mxCell id="rlhBUZmAT8BfPZjBoUgw-71" value="" style="edgeStyle=orthogonalEdgeStyle;rounded=0;orthogonalLoop=1;jettySize=auto;html=1;" parent="1" source="rlhBUZmAT8BfPZjBoUgw-69" target="rlhBUZmAT8BfPZjBoUgw-70" edge="1">
          <mxGeometry relative="1" as="geometry" />
        </mxCell>
        <mxCell id="rlhBUZmAT8BfPZjBoUgw-69" value="Lexer" style="rounded=0;whiteSpace=wrap;html=1;" parent="1" vertex="1">
          <mxGeometry x="897" y="415" width="120" height="60" as="geometry" />
        </mxCell>
        <mxCell id="rlhBUZmAT8BfPZjBoUgw-74" value="" style="edgeStyle=orthogonalEdgeStyle;rounded=0;orthogonalLoop=1;jettySize=auto;html=1;" parent="1" source="rlhBUZmAT8BfPZjBoUgw-70" target="rlhBUZmAT8BfPZjBoUgw-73" edge="1">
          <mxGeometry relative="1" as="geometry" />
        </mxCell>
        <mxCell id="rlhBUZmAT8BfPZjBoUgw-70" value="Recursive Descent Parser" style="rounded=0;whiteSpace=wrap;html=1;" parent="1" vertex="1">
          <mxGeometry x="1068" y="415" width="120" height="60" as="geometry" />
        </mxCell>
        <mxCell id="rlhBUZmAT8BfPZjBoUgw-72" value="Tokens" style="text;html=1;align=center;verticalAlign=middle;whiteSpace=wrap;rounded=0;" parent="1" vertex="1">
          <mxGeometry x="1011" y="423" width="60" height="30" as="geometry" />
        </mxCell>
        <mxCell id="rlhBUZmAT8BfPZjBoUgw-78" style="edgeStyle=orthogonalEdgeStyle;rounded=0;orthogonalLoop=1;jettySize=auto;html=1;fillColor=#d5e8d4;strokeColor=#000000;entryX=0;entryY=0.5;entryDx=0;entryDy=0;" parent="1" source="rlhBUZmAT8BfPZjBoUgw-73" target="rlhBUZmAT8BfPZjBoUgw-84" edge="1">
          <mxGeometry relative="1" as="geometry">
            <mxPoint x="1641" y="445" as="targetPoint" />
          </mxGeometry>
        </mxCell>
        <mxCell id="rlhBUZmAT8BfPZjBoUgw-73" value="&lt;div style=&quot;text-align: left;&quot;&gt;&lt;font size=&quot;1&quot; face=&quot;Google Sans, arial, sans-serif&quot; color=&quot;#040c28&quot;&gt;&lt;span style=&quot;background-color: rgb(255, 255, 255); font-size: 12px;&quot;&gt;µOps generation&lt;/span&gt;&lt;/font&gt;&lt;/div&gt;" style="whiteSpace=wrap;html=1;rounded=0;" parent="1" vertex="1">
          <mxGeometry x="1238" y="415" width="120" height="60" as="geometry" />
        </mxCell>
        <mxCell id="rlhBUZmAT8BfPZjBoUgw-75" value="Parse&amp;nbsp;&lt;div&gt;tree&lt;/div&gt;" style="text;html=1;align=center;verticalAlign=middle;whiteSpace=wrap;rounded=0;" parent="1" vertex="1">
          <mxGeometry x="1184" y="415" width="60" height="30" as="geometry" />
        </mxCell>
        <mxCell id="rlhBUZmAT8BfPZjBoUgw-80" value="List of micro operations" style="text;html=1;align=center;verticalAlign=middle;whiteSpace=wrap;rounded=0;" parent="1" vertex="1">
          <mxGeometry x="1358" y="415" width="70" height="30" as="geometry" />
        </mxCell>
        <mxCell id="rlhBUZmAT8BfPZjBoUgw-81" value="" style="endArrow=none;html=1;rounded=0;" parent="1" edge="1">
          <mxGeometry width="50" height="50" relative="1" as="geometry">
            <mxPoint x="888" y="485" as="sourcePoint" />
            <mxPoint x="1649.6666666666667" y="485" as="targetPoint" />
          </mxGeometry>
        </mxCell>
        <mxCell id="rlhBUZmAT8BfPZjBoUgw-82" value="Low-level layer" style="text;html=1;align=center;verticalAlign=middle;whiteSpace=wrap;rounded=0;" parent="1" vertex="1">
          <mxGeometry x="818" y="495" width="60" height="30" as="geometry" />
        </mxCell>
        <mxCell id="WqScMj2jkjU4SlrWVlD_-28" value="" style="edgeStyle=orthogonalEdgeStyle;rounded=0;orthogonalLoop=1;jettySize=auto;html=1;" edge="1" parent="1" source="rlhBUZmAT8BfPZjBoUgw-83" target="WqScMj2jkjU4SlrWVlD_-21">
          <mxGeometry relative="1" as="geometry" />
        </mxCell>
        <mxCell id="rlhBUZmAT8BfPZjBoUgw-83" value="API_draw_line" style="rounded=0;whiteSpace=wrap;html=1;" parent="1" vertex="1">
          <mxGeometry x="897" y="495" width="120" height="60" as="geometry" />
        </mxCell>
        <mxCell id="rlhBUZmAT8BfPZjBoUgw-86" style="edgeStyle=orthogonalEdgeStyle;rounded=0;orthogonalLoop=1;jettySize=auto;html=1;fillColor=#d5e8d4;strokeColor=#82b366;strokeWidth=2;entryX=-0.007;entryY=0.517;entryDx=0;entryDy=0;entryPerimeter=0;" parent="1" source="rlhBUZmAT8BfPZjBoUgw-84" edge="1" target="rlhBUZmAT8BfPZjBoUgw-87">
          <mxGeometry relative="1" as="geometry">
            <mxPoint x="1641" y="445" as="targetPoint" />
          </mxGeometry>
        </mxCell>
        <mxCell id="rlhBUZmAT8BfPZjBoUgw-84" value="Execute&amp;nbsp;&lt;span style=&quot;color: rgb(4, 12, 40); font-family: &amp;quot;Google Sans&amp;quot;, arial, sans-serif; text-align: left; background-color: rgb(255, 255, 255);&quot;&gt;µOps&lt;/span&gt;" style="rounded=0;whiteSpace=wrap;html=1;" parent="1" vertex="1">
          <mxGeometry x="1432" y="415" width="120" height="60" as="geometry" />
        </mxCell>
        <mxCell id="WqScMj2jkjU4SlrWVlD_-3" style="edgeStyle=orthogonalEdgeStyle;rounded=0;orthogonalLoop=1;jettySize=auto;html=1;entryX=1;entryY=0.5;entryDx=0;entryDy=0;" edge="1" parent="1" source="WqScMj2jkjU4SlrWVlD_-1" target="WqScMj2jkjU4SlrWVlD_-2">
          <mxGeometry relative="1" as="geometry" />
        </mxCell>
        <mxCell id="WqScMj2jkjU4SlrWVlD_-1" value="Error Handler" style="rounded=0;whiteSpace=wrap;html=1;" vertex="1" parent="1">
          <mxGeometry x="1431" y="83" width="120" height="60" as="geometry" />
        </mxCell>
        <mxCell id="WqScMj2jkjU4SlrWVlD_-6" style="edgeStyle=orthogonalEdgeStyle;rounded=0;orthogonalLoop=1;jettySize=auto;html=1;entryX=1;entryY=0.5;entryDx=0;entryDy=0;" edge="1" parent="1" source="WqScMj2jkjU4SlrWVlD_-2" target="WqScMj2jkjU4SlrWVlD_-4">
          <mxGeometry relative="1" as="geometry" />
        </mxCell>
        <mxCell id="WqScMj2jkjU4SlrWVlD_-2" value="Serial connection" style="rounded=0;whiteSpace=wrap;html=1;" vertex="1" parent="1">
          <mxGeometry x="1238" y="83" width="120" height="60" as="geometry" />
        </mxCell>
        <mxCell id="WqScMj2jkjU4SlrWVlD_-4" value="Terminal" style="rounded=0;whiteSpace=wrap;html=1;" vertex="1" parent="1">
          <mxGeometry x="897" y="83" width="120" height="60" as="geometry" />
        </mxCell>
        <mxCell id="WqScMj2jkjU4SlrWVlD_-8" value="" style="endArrow=classic;html=1;rounded=0;entryX=1;entryY=0.5;entryDx=0;entryDy=0;fillColor=#f8cecc;strokeColor=#b85450;exitX=0.005;exitY=0.123;exitDx=0;exitDy=0;exitPerimeter=0;" edge="1" parent="1" source="rlhBUZmAT8BfPZjBoUgw-87" target="WqScMj2jkjU4SlrWVlD_-1">
          <mxGeometry width="50" height="50" relative="1" as="geometry">
            <mxPoint x="1669" y="115" as="sourcePoint" />
            <mxPoint x="1702" y="115" as="targetPoint" />
          </mxGeometry>
        </mxCell>
        <mxCell id="WqScMj2jkjU4SlrWVlD_-10" value="Errors" style="rounded=0;whiteSpace=wrap;html=1;" vertex="1" parent="1">
          <mxGeometry x="1431" y="309" width="120" height="60" as="geometry" />
        </mxCell>
        <mxCell id="WqScMj2jkjU4SlrWVlD_-11" style="edgeStyle=orthogonalEdgeStyle;rounded=0;orthogonalLoop=1;jettySize=auto;html=1;entryX=0.014;entryY=0.39;entryDx=0;entryDy=0;entryPerimeter=0;fillColor=#f8cecc;strokeColor=#b85450;" edge="1" parent="1" source="WqScMj2jkjU4SlrWVlD_-10" target="rlhBUZmAT8BfPZjBoUgw-87">
          <mxGeometry relative="1" as="geometry">
            <Array as="points">
              <mxPoint x="1665" y="339" />
            </Array>
          </mxGeometry>
        </mxCell>
        <mxCell id="WqScMj2jkjU4SlrWVlD_-13" value="Errors" style="rounded=0;whiteSpace=wrap;html=1;" vertex="1" parent="1">
          <mxGeometry x="1432" y="792" width="120" height="60" as="geometry" />
        </mxCell>
        <mxCell id="WqScMj2jkjU4SlrWVlD_-14" style="edgeStyle=orthogonalEdgeStyle;rounded=0;orthogonalLoop=1;jettySize=auto;html=1;entryX=-0.025;entryY=0.469;entryDx=0;entryDy=0;entryPerimeter=0;fillColor=#f8cecc;strokeColor=#b85450;" edge="1" parent="1" source="WqScMj2jkjU4SlrWVlD_-13">
          <mxGeometry relative="1" as="geometry">
            <mxPoint x="1670" y="821" as="targetPoint" />
          </mxGeometry>
        </mxCell>
        <mxCell id="WqScMj2jkjU4SlrWVlD_-19" value="" style="edgeStyle=orthogonalEdgeStyle;rounded=0;orthogonalLoop=1;jettySize=auto;html=1;" edge="1" parent="1" target="WqScMj2jkjU4SlrWVlD_-18">
          <mxGeometry relative="1" as="geometry">
            <mxPoint x="1358" y="525" as="sourcePoint" />
          </mxGeometry>
        </mxCell>
        <mxCell id="WqScMj2jkjU4SlrWVlD_-18" value="VGA Transmit to screen" style="rounded=0;whiteSpace=wrap;html=1;" vertex="1" parent="1">
          <mxGeometry x="1432" y="495" width="120" height="60" as="geometry" />
        </mxCell>
        <mxCell id="WqScMj2jkjU4SlrWVlD_-20" value="SetPixels in buffer" style="rounded=0;whiteSpace=wrap;html=1;" vertex="1" parent="1">
          <mxGeometry x="1238" y="495" width="120" height="60" as="geometry" />
        </mxCell>
        <mxCell id="WqScMj2jkjU4SlrWVlD_-34" value="" style="edgeStyle=orthogonalEdgeStyle;rounded=0;orthogonalLoop=1;jettySize=auto;html=1;" edge="1" parent="1" source="WqScMj2jkjU4SlrWVlD_-21" target="WqScMj2jkjU4SlrWVlD_-20">
          <mxGeometry relative="1" as="geometry" />
        </mxCell>
        <mxCell id="WqScMj2jkjU4SlrWVlD_-21" value="Calculate pixel positions and colors" style="rounded=0;whiteSpace=wrap;html=1;" vertex="1" parent="1">
          <mxGeometry x="1068" y="495" width="120" height="60" as="geometry" />
        </mxCell>
        <mxCell id="WqScMj2jkjU4SlrWVlD_-29" style="edgeStyle=orthogonalEdgeStyle;rounded=0;orthogonalLoop=1;jettySize=auto;html=1;entryX=0;entryY=0.5;entryDx=0;entryDy=0;" edge="1" parent="1" source="WqScMj2jkjU4SlrWVlD_-24" target="WqScMj2jkjU4SlrWVlD_-21">
          <mxGeometry relative="1" as="geometry" />
        </mxCell>
        <mxCell id="WqScMj2jkjU4SlrWVlD_-24" value="API_draw_text" style="rounded=0;whiteSpace=wrap;html=1;" vertex="1" parent="1">
          <mxGeometry x="897" y="571" width="120" height="60" as="geometry" />
        </mxCell>
        <mxCell id="WqScMj2jkjU4SlrWVlD_-30" style="edgeStyle=orthogonalEdgeStyle;rounded=0;orthogonalLoop=1;jettySize=auto;html=1;entryX=0;entryY=0.5;entryDx=0;entryDy=0;" edge="1" parent="1" source="WqScMj2jkjU4SlrWVlD_-25" target="WqScMj2jkjU4SlrWVlD_-21">
          <mxGeometry relative="1" as="geometry" />
        </mxCell>
        <mxCell id="WqScMj2jkjU4SlrWVlD_-25" value="API_draw_rectangle" style="rounded=0;whiteSpace=wrap;html=1;" vertex="1" parent="1">
          <mxGeometry x="897" y="647" width="120" height="60" as="geometry" />
        </mxCell>
        <mxCell id="WqScMj2jkjU4SlrWVlD_-31" style="edgeStyle=orthogonalEdgeStyle;rounded=0;orthogonalLoop=1;jettySize=auto;html=1;entryX=0;entryY=0.5;entryDx=0;entryDy=0;" edge="1" parent="1" source="WqScMj2jkjU4SlrWVlD_-26" target="WqScMj2jkjU4SlrWVlD_-21">
          <mxGeometry relative="1" as="geometry" />
        </mxCell>
        <mxCell id="WqScMj2jkjU4SlrWVlD_-26" value="API_draw_bitmap" style="rounded=0;whiteSpace=wrap;html=1;" vertex="1" parent="1">
          <mxGeometry x="897" y="723" width="120" height="60" as="geometry" />
        </mxCell>
        <mxCell id="WqScMj2jkjU4SlrWVlD_-32" style="edgeStyle=orthogonalEdgeStyle;rounded=0;orthogonalLoop=1;jettySize=auto;html=1;entryX=0;entryY=0.5;entryDx=0;entryDy=0;" edge="1" parent="1" source="WqScMj2jkjU4SlrWVlD_-27" target="WqScMj2jkjU4SlrWVlD_-21">
          <mxGeometry relative="1" as="geometry" />
        </mxCell>
        <mxCell id="WqScMj2jkjU4SlrWVlD_-27" value="&lt;font style=&quot;font-size: 11px;&quot;&gt;API_draw_clearscreen&lt;/font&gt;" style="rounded=0;whiteSpace=wrap;html=1;" vertex="1" parent="1">
          <mxGeometry x="897" y="799" width="120" height="60" as="geometry" />
        </mxCell>
        <mxCell id="WqScMj2jkjU4SlrWVlD_-33" value="" style="group" vertex="1" connectable="0" parent="1">
          <mxGeometry x="1670" y="10" width="103" height="842" as="geometry" />
        </mxCell>
        <mxCell id="rlhBUZmAT8BfPZjBoUgw-87" value="Output" style="rounded=0;whiteSpace=wrap;html=1;" parent="WqScMj2jkjU4SlrWVlD_-33" vertex="1">
          <mxGeometry width="46" height="842.0000000000001" as="geometry" />
        </mxCell>
        <mxCell id="WqScMj2jkjU4SlrWVlD_-15" value="" style="endArrow=classic;html=1;rounded=0;strokeWidth=6;fillColor=#d5e8d4;strokeColor=#82b366;" edge="1" parent="WqScMj2jkjU4SlrWVlD_-33">
          <mxGeometry width="50" height="50" relative="1" as="geometry">
            <mxPoint x="72" as="sourcePoint" />
            <mxPoint x="72" y="842.0000000000001" as="targetPoint" />
          </mxGeometry>
        </mxCell>
        <mxCell id="WqScMj2jkjU4SlrWVlD_-16" value="" style="endArrow=classic;html=1;rounded=0;strokeWidth=6;fillColor=#f8cecc;strokeColor=#b85450;" edge="1" parent="WqScMj2jkjU4SlrWVlD_-33">
          <mxGeometry width="50" height="50" relative="1" as="geometry">
            <mxPoint x="103" y="842.0000000000001" as="sourcePoint" />
            <mxPoint x="103" as="targetPoint" />
          </mxGeometry>
        </mxCell>
      </root>
    </mxGraphModel>
  </diagram>
</mxfile>
